<?xml version="1.0" encoding="UTF-8" standalone="no"?>
<svg xmlns:dc="http://purl.org/dc/elements/1.1/" xmlns:cc="http://creativecommons.org/ns#" xmlns:rdf="http://www.w3.org/1999/02/22-rdf-syntax-ns#" xmlns:svg="http://www.w3.org/2000/svg" xmlns="http://www.w3.org/2000/svg" xmlns:sodipodi="http://sodipodi.sourceforge.net/DTD/sodipodi-0.dtd" xmlns:inkscape="http://www.inkscape.org/namespaces/inkscape" sodipodi:docname="hedgehog.svg" inkscape:version="1.0 (4035a4fb49, 2020-05-01)" id="svg8" version="1.1" viewBox="0 0 632.77417 537.37714" height="537.37714mm" width="632.77417mm">
  <defs id="defs2">
    <inkscape:path-effect message="Use fill-rule evenodd on &lt;b&gt;fill and stroke&lt;/b&gt; dialog if no flatten result after convert clip to paths." hide_clip="false" flatten="false" inverse="true" lpeversion="1" is_visible="true" id="path-effect874" effect="powerclip"/>
    <clipPath id="clipPath870" clipPathUnits="userSpaceOnUse">
      <circle d="M 105.07738,136.07143 A 10.583333,10.583333 0 0 1 94.494049,146.65476 10.583333,10.583333 0 0 1 83.910716,136.07143 10.583333,10.583333 0 0 1 94.494049,125.48809 10.583333,10.583333 0 0 1 105.07738,136.07143" r="10.583333" cy="136.07143" cx="94.494049" id="circle872" style="display:none;fill:#e6e6e6;stroke-width:0.264583"/>
      <path d="M -136.63622,69.996806 H 241.72634 V 233.76135 h -378.36256 z m 241.7136,66.074624 a 10.583333,10.583333 0 0 0 -10.583331,-10.58334 10.583333,10.583333 0 0 0 -10.583333,10.58334 10.583333,10.583333 0 0 0 10.583333,10.58333 10.583333,10.583333 0 0 0 10.583331,-10.58333" class="powerclip" style="fill:#e6e6e6;stroke-width:0.264583" id="lpe_path-effect874"/>
    </clipPath>
  </defs>
  <sodipodi:namedview lock-margins="false" fit-margin-bottom="0" fit-margin-right="0" fit-margin-left="0" fit-margin-top="0" inkscape:window-maximized="1" inkscape:window-y="-8" inkscape:window-x="1912" inkscape:window-height="1057" inkscape:window-width="1858" showgrid="false" inkscape:document-rotation="0" inkscape:current-layer="layer2" inkscape:document-units="mm" inkscape:cy="670.39217" inkscape:cx="2277.9808" inkscape:zoom="0.24748737" inkscape:pageshadow="2" inkscape:pageopacity="0.0" borderopacity="1.0" bordercolor="#666666" pagecolor="#ffffff" id="base"/>
  <metadata id="metadata5">
    <rdf:RDF>
      <cc:Work rdf:about="">
        <dc:format>image/svg+xml</dc:format>
        <dc:type rdf:resource="http://purl.org/dc/dcmitype/StillImage"/>
        <dc:title/>
      </cc:Work>
    </rdf:RDF>
  </metadata>
  <g transform="translate(396.0478,248.23215)" sodipodi:insensitive="true" id="layer1" inkscape:groupmode="layer" inkscape:label="Layer 1"/>
  <g transform="translate(396.0478,248.23215)" style="display:inline" inkscape:label="trace" id="layer2" inkscape:groupmode="layer">
    <path sodipodi:nodetypes="cccc" id="path25" d="m -205.61905,-154.97024 c -124.05521,-43.34133 -228.24693,120.769874 -176.89285,176.136906 -4.18027,-43.905321 16.02927,-69.987312 64.25596,-75.595238 21.15442,-39.768522 88.9943,-89.753598 112.63689,-100.541668 z" style="fill:#d1e7fa;stroke:#d1e7fa;stroke-width:0.264583px;stroke-linecap:butt;stroke-linejoin:miter;stroke-opacity:1"/>
    <path sodipodi:nodetypes="cccc" id="path850" d="m -182.94047,-164.79762 c -39.2108,-19.0216 -79.23844,-46.75623 -112.63692,-3.77976 -9.23406,-42.12645 106.29849,-94.96062 212.270676,-31.38315 -43.086316,9.63843 -69.934206,6.26735 -99.633756,35.16291 z" style="fill:#d1e7fa;stroke:#d1e7fa;stroke-width:0.264583px;stroke-linecap:butt;stroke-linejoin:miter;stroke-opacity:1"/>
    <path sodipodi:nodetypes="cccccccc" id="path852" d="m -323.5476,168.57738 c -58.77192,6.03156 -87.96757,-106.150019 2.26784,-195.035713 72.59772,-79.469877 151.90694,-126.893107 225.27381,-145.898807 78.568475,-18.52255 61.952955,-71.77826 5.291666,-60.47619 23.96934,-12.85213 52.545604,-27.05778 84.666665,0.75595 55.091027,60.8526 28.566747,85.23879 -9.827381,104.32143 -63.737438,33.215514 -155.15487,56.558094 -248.70833,153.45833 -49.91232,50.565861 -106.63725,105.97108 -58.96427,142.875 z" style="fill:#d1e7fa;stroke:#d1e7fa;stroke-width:0.264583px;stroke-linecap:butt;stroke-linejoin:miter;stroke-opacity:1"/>
    <path sodipodi:nodetypes="ccccccccc" id="path854" d="m -169.90029,277.05653 c 8.78275,-12.88888 0.24769,60.7373 -126.83,-51.3399 -18.67274,-16.93774 -47.4348,-82.76363 45.56511,-174.689846 68.68404,-75.1782 151.500204,-116.258616 244.3616086,-152.324404 28.8814764,-11.46906 118.5748914,-60.71527 45.1737184,-98.45723 49.324169,-8.72047 67.740833,38.88556 79.558423,67.46319 33.89729,85.937575 -104.367198,94.259193 -197.303569,149.678565 -11.032852,6.851086 -151.097091,84.876925 -159.883921,173.491075 -5.89583,57.09557 27.49016,87.87048 69.35863,86.17855 z" style="fill:#d1e7fa;stroke:#d1e7fa;stroke-width:0.264583px;stroke-linecap:butt;stroke-linejoin:miter;stroke-opacity:1"/>
    <path sodipodi:nodetypes="cccccccc" id="path856" d="M 134.55952,-111.125 C 159.432,-52.571515 125.53873,-37.511629 -46.173336,32.230814 -230.53738,119.7736 -219.21922,189.67202 -210.91071,218.47024 c 26.20635,62.03826 52.4127,34.74059 78.61905,33.2619 -10.96538,-7.14688 -39.69996,7.65643 -19.65477,-37.79762 17.86773,-50.5452 72.275667,-77.44674 123.22024,-106.58928 C 28.030792,77.757824 28.220195,82.693457 116.62885,43.761392 144.65965,30.848499 216.66902,-56.268148 134.55952,-111.125 Z" style="fill:#d1e7fa;stroke:#d1e7fa;stroke-width:0.264583px;stroke-linecap:butt;stroke-linejoin:miter;stroke-opacity:1"/>
    <path inkscape:original-d="m -131.49661,221.29917 c 2.24739,-35.74742 210.632859,-182.173879 273.684,-137.91108 18.67762,10.995184 45.34482,101.42939 65.21376,87.66441 13.26388,-45.80206 53.33611,7.0845 8.55263,11.75985 2.00432,21.92562 -193.206134,62.42577 -347.45039,38.48682 z" inkscape:path-effect="#path-effect874" clip-path="url(#clipPath870)" sodipodi:nodetypes="ccccc" id="path858" d="m -131.49661,221.29917 c 2.24739,-35.74742 210.632859,-182.173879 273.684,-137.91108 18.67762,10.995184 45.34482,101.42939 65.21376,87.66441 13.26388,-45.80206 53.33611,7.0845 8.55263,11.75985 2.00432,21.92562 -193.206134,62.42577 -347.45039,38.48682 z" style="fill:#d1e7fa;stroke:#d1e7fa;stroke-width:0.264583px;stroke-linecap:butt;stroke-linejoin:miter;stroke-opacity:1"/>
  </g>
</svg>